<svg width="294" height="217" viewBox="0 0 294 217" fill="none" xmlns="http://www.w3.org/2000/svg">
<ellipse cx="92.9539" cy="90.7978" rx="48.7349" ry="28.2047" transform="rotate(24.7492 92.9539 90.7978)" fill="#008DDF"/>
<rect x="54.2022" y="56.4522" width="98.9051" height="120.582" rx="41" transform="rotate(24.5695 54.2022 56.4522)" fill="#00CCFF"/>
<ellipse cx="53.6241" cy="176.66" rx="49.3148" ry="21.1132" transform="rotate(24.7492 53.6241 176.66)" fill="#008DDF"/>
<rect x="72.1146" y="81.0721" width="51.9637" height="53.7425" transform="rotate(25.8988 72.1146 81.0721)" fill="#F5F5F5"/>
<path d="M184.26 29.1126L139.098 76.4823L184.26 106.582L177.486 90.2985L249.293 97.7L213.164 83.8838L293.552 53.2909L227.615 61.6793L286.777 4.44091L213.164 53.2909L240.261 0L177.486 61.6793L184.26 29.1126Z" fill="#00CCFF"/>
<ellipse cx="83.8768" cy="117.114" rx="9.93559" ry="10.1207" transform="rotate(29.3806 83.8768 117.114)" fill="#00CCFF"/>
</svg>
