{
	"asset":{
		"generator":"Khronos glTF Blender I/O v4.4.56",
		"version":"2.0"
	},
	"scene":0,
	"scenes":[
		{
			"name":"Scene",
			"nodes":[
				0
			]
		}
	],
	"nodes":[
		{
			"mesh":0,
			"name":"Cube"
		}
	],
	"materials":[
		{
			"doubleSided":true,
			"name":"Material",
			"pbrMetallicRoughness":{
				"baseColorFactor":[
					0.800000011920929,
					0.800000011920929,
					0.800000011920929,
					1
				],
				"metallicFactor":0,
				"roughnessFactor":0.5
			}
		}
	],
	"meshes":[
		{
			"name":"Cube",
			"primitives":[
				{
					"attributes":{
						"POSITION":0,
						"NORMAL":1,
						"TEXCOORD_0":2
					},
					"indices":3,
					"material":0
				}
			]
		}
	],
	"accessors":[
		{
			"bufferView":0,
			"componentType":5126,
			"count":4966458,
			"max":[
				1.5169436931610107,
				1.000000238418579,
				1.5070000886917114
			],
			"min":[
				-1.000000238418579,
				-1.1219993829727173,
				-1.381463885307312
			],
			"type":"VEC3"
		},
		{
			"bufferView":1,
			"componentType":5126,
			"count":4966458,
			"type":"VEC3"
		},
		{
			"bufferView":2,
			"componentType":5126,
			"count":4966458,
			"type":"VEC2"
		},
		{
			"bufferView":3,
			"componentType":5125,
			"count":9584640,
			"type":"SCALAR"
		}
	],
	"bufferViews":[
		{
			"buffer":0,
			"byteLength":59597496,
			"byteOffset":0,
			"target":34962
		},
		{
			"buffer":0,
			"byteLength":59597496,
			"byteOffset":59597496,
			"target":34962
		},
		{
			"buffer":0,
			"byteLength":39731664,
			"byteOffset":119194992,
			"target":34962
		},
		{
			"buffer":0,
			"byteLength":38338560,
			"byteOffset":158926656,
			"target":34963
		}
	],
	"buffers":[
		{
			"byteLength":197265216,
			"uri":"kirby.bin"
		}
	]
}
