{
	"asset":{
		"generator":"Khronos glTF Blender I/O v4.4.56",
		"version":"2.0"
	},
	"scene":0,
	"scenes":[
		{
			"name":"Scene",
			"nodes":[
				0
			]
		}
	],
	"nodes":[
		{
			"mesh":0,
			"name":"Cube"
		}
	],
	"materials":[
		{
			"doubleSided":true,
			"name":"Material.001",
			"pbrMetallicRoughness":{
				"baseColorFactor":[
					0.8027425408363342,
					0.04567199945449829,
					0.014902492985129356,
					1
				],
				"metallicFactor":0.9415807723999023,
				"roughnessFactor":0.5
			}
		}
	],
	"meshes":[
		{
			"name":"Cube.001",
			"primitives":[
				{
					"attributes":{
						"POSITION":0,
						"NORMAL":1,
						"TEXCOORD_0":2
					},
					"indices":3,
					"material":0
				}
			]
		}
	],
	"accessors":[
		{
			"bufferView":0,
			"componentType":5126,
			"count":2060273,
			"max":[
				1.1206555366516113,
				1.4349607229232788,
				1.000000238418579
			],
			"min":[
				-1.1206555366516113,
				-2.218745231628418,
				-1.000000238418579
			],
			"type":"VEC3"
		},
		{
			"bufferView":1,
			"componentType":5126,
			"count":2060273,
			"type":"VEC3"
		},
		{
			"bufferView":2,
			"componentType":5126,
			"count":2060273,
			"type":"VEC2"
		},
		{
			"bufferView":3,
			"componentType":5125,
			"count":3796272,
			"type":"SCALAR"
		}
	],
	"bufferViews":[
		{
			"buffer":0,
			"byteLength":24723276,
			"byteOffset":0,
			"target":34962
		},
		{
			"buffer":0,
			"byteLength":24723276,
			"byteOffset":24723276,
			"target":34962
		},
		{
			"buffer":0,
			"byteLength":16482184,
			"byteOffset":49446552,
			"target":34962
		},
		{
			"buffer":0,
			"byteLength":15185088,
			"byteOffset":65928736,
			"target":34963
		}
	],
	"buffers":[
		{
			"byteLength":81113824,
			"uri":"lilguyapply.bin"
		}
	]
}
